<svg width="32" height="32" viewBox="0 0 32 32" fill="none" xmlns="http://www.w3.org/2000/svg">
  <rect width="32" height="32" rx="8" fill="#4F46E5"/>
  <path d="M16 8C11.6 8 8 11.6 8 16C8 20.4 11.6 24 16 24C20.4 24 24 20.4 24 16C24 11.6 20.4 8 16 8ZM21.4 15H19.2C19.1 13.4 18.6 11.9 17.9 10.6C19.6 11.4 20.9 13 21.4 15ZM16 10.1C16.9 11.4 17.5 13.1 17.7 15H14.3C14.5 13.1 15.1 11.4 16 10.1ZM10.6 17C10.5 16.7 10.5 16.3 10.5 16C10.5 15.7 10.5 15.3 10.6 15H13.1C13 15.3 13 15.7 13 16C13 16.3 13 16.7 13.1 17H10.6ZM10.6 17H13.1C13.2 18.6 13.7 20.1 14.4 21.4C12.7 20.6 11.4 19 10.6 17ZM16 21.9C15.1 20.6 14.5 18.9 14.3 17H17.7C17.5 18.9 16.9 20.6 16 21.9ZM18 17H14C13.9 16.7 13.9 16.3 13.9 16C13.9 15.7 13.9 15.3 14 15H18C18.1 15.3 18.1 15.7 18.1 16C18.1 16.3 18.1 16.7 18 17ZM17.9 21.4C18.6 20.1 19.1 18.6 19.2 17H21.4C20.9 19 19.6 20.6 17.9 21.4Z" fill="white"/>
</svg> 